<?xml version="1.0" encoding="utf-8"?>
<!-- Generator: Adobe Illustrator 26.0.3, SVG Export Plug-In . SVG Version: 6.00 Build 0)  -->
<svg version="1.1" id="Grupo_20" xmlns="http://www.w3.org/2000/svg" xmlns:xlink="http://www.w3.org/1999/xlink" x="0px" y="0px"
	 viewBox="0 0 22.9 17.2" style="enable-background:new 0 0 22.9 17.2;" xml:space="preserve">
<style type="text/css">
	.st0{clip-path:url(#SVGID_00000078038738978394865560000008900861305817412261_);}
	.st1{fill:#313131;}
</style>
<g>
	<defs>
		<rect id="SVGID_1_" x="5.3" y="1.4" width="12.2" height="14.4"/>
	</defs>
	<clipPath id="SVGID_00000128471135857160099140000012997942084816991383_">
		<use xlink:href="#SVGID_1_"  style="overflow:visible;"/>
	</clipPath>
	<g id="Grupo_19" style="clip-path:url(#SVGID_00000128471135857160099140000012997942084816991383_);">
		<path id="Caminho_37" class="st1" d="M16.7,1.7c-0.5-0.4-1.2-0.4-1.8-0.2l-4.2,1.7C10,3.5,9.5,4.2,9.5,5v6c-0.5-0.3-1-0.5-1.6-0.5
			c-1.4,0-2.6,1.2-2.6,2.6s1.2,2.6,2.6,2.6s2.6-1.2,2.6-2.6c0,0,0,0,0,0V7.9l5.9-2.4v2.7c-0.5-0.3-1-0.5-1.6-0.5
			c-1.4,0-2.6,1.2-2.6,2.6S13.5,13,15,13s2.6-1.2,2.6-2.6c0,0,0,0,0,0v-7C17.6,2.7,17.3,2.1,16.7,1.7z M8,14.7
			c-0.9,0-1.6-0.7-1.6-1.6c0-0.9,0.7-1.6,1.6-1.6s1.6,0.7,1.6,1.6c0,0.4-0.2,0.8-0.5,1.1C8.8,14.6,8.4,14.7,8,14.7 M10.6,5
			c0-0.4,0.2-0.7,0.6-0.8l4.2-1.7c0.5-0.2,1,0,1.1,0.5c0,0.1,0.1,0.2,0.1,0.3v1.1l-6,2.4V5z M15,11.9c-0.9,0-1.6-0.7-1.6-1.6
			s0.7-1.6,1.6-1.6c0.9,0,1.6,0.7,1.6,1.6c0,0.4-0.2,0.8-0.5,1.1C15.8,11.8,15.4,11.9,15,11.9"/>
	</g>
</g>
</svg>
