<?xml version="1.0" encoding="utf-8"?>
<!-- Generator: Adobe Illustrator 26.0.3, SVG Export Plug-In . SVG Version: 6.00 Build 0)  -->
<svg version="1.1" id="Grupo_7" xmlns="http://www.w3.org/2000/svg" xmlns:xlink="http://www.w3.org/1999/xlink" x="0px" y="0px"
	 viewBox="0 0 22.9 17.2" style="enable-background:new 0 0 22.9 17.2;" xml:space="preserve">
<style type="text/css">
	.st0{clip-path:url(#SVGID_00000154417249776728291780000015459630992965703563_);}
	.st1{fill:#313131;}
</style>
<g>
	<defs>
		<rect id="SVGID_1_" width="22.9" height="17.2"/>
	</defs>
	<clipPath id="SVGID_00000178187288501829439780000011849730083650811526_">
		<use xlink:href="#SVGID_1_"  style="overflow:visible;"/>
	</clipPath>
	<g id="Grupo_6" style="clip-path:url(#SVGID_00000178187288501829439780000011849730083650811526_);">
		<path id="Caminho_30" class="st1" d="M20.5,0H2.4C1.1,0,0,1.1,0,2.4v12.5c0,1.3,1.1,2.4,2.4,2.4c0,0,0,0,0,0h18.2
			c1.3,0,2.4-1.1,2.4-2.4V2.4C22.9,1.1,21.8,0,20.5,0z M2.4,0.9h18.2c0.8,0,1.5,0.7,1.5,1.5c0,0,0,0,0,0v8.7l-6.5-4.3
			c-0.2-0.1-0.4-0.1-0.5,0l-5,3.3L7.9,8.7l0,0c-0.2-0.1-0.4-0.1-0.5,0L0.9,13V2.4C0.9,1.6,1.6,0.9,2.4,0.9L2.4,0.9z M20.5,16.3H2.4
			c-0.8,0-1.5-0.7-1.5-1.5v-0.7l6.7-4.5L9.8,11c0.2,0.1,0.4,0.1,0.5,0l5-3.3l6.7,4.5v2.6C22,15.6,21.3,16.3,20.5,16.3L20.5,16.3z"/>
		<path id="Caminho_31" class="st1" d="M4.4,6.7c1,0,1.9-0.8,1.9-1.9c0-1-0.8-1.9-1.9-1.9c-1,0-1.9,0.8-1.9,1.9c0,0.5,0.2,1,0.6,1.4
			C3.4,6.5,3.9,6.7,4.4,6.7z M4.4,3.8c0.5,0,1,0.4,1,1c0,0.5-0.4,1-1,1c-0.5,0-1-0.4-1-1c0-0.3,0.1-0.5,0.3-0.7
			C3.9,3.9,4.1,3.8,4.4,3.8z"/>
	</g>
</g>
</svg>
