<?xml version="1.0" encoding="utf-8"?>
<!-- Generator: Adobe Illustrator 26.0.3, SVG Export Plug-In . SVG Version: 6.00 Build 0)  -->
<svg version="1.1" id="Grupo_18" xmlns="http://www.w3.org/2000/svg" xmlns:xlink="http://www.w3.org/1999/xlink" x="0px" y="0px"
	 viewBox="0 0 22.9 17.2" style="enable-background:new 0 0 22.9 17.2;" xml:space="preserve">
<style type="text/css">
	.st0{clip-path:url(#SVGID_00000139257347987521107110000012951652798515650448_);}
	.st1{fill:#313131;}
	.st2{clip-path:url(#SVGID_00000010274939438448833790000008015239444791982767_);}
	.st3{clip-path:url(#SVGID_00000139984276364171195640000000578754735975344559_);}
</style>
<g id="Grupo_13" transform="translate(0 2.192)">
	<g>
		<defs>
			<rect id="SVGID_1_" x="2.2" y="1.5" width="16.3" height="12"/>
		</defs>
		<clipPath id="SVGID_00000180346513222917584310000006551848228817179272_">
			<use xlink:href="#SVGID_1_"  style="overflow:visible;"/>
		</clipPath>
		<g id="Grupo_12" style="clip-path:url(#SVGID_00000180346513222917584310000006551848228817179272_);">
			<path id="Caminho_34" class="st1" d="M4.3,1.5h12.2c1.1,0,2,1,2,2.1v7.8c0,1.1-0.9,2.1-2,2.1H4.3c-1.1,0-2.1-0.9-2.1-2.1V3.6
				C2.2,2.5,3.1,1.5,4.3,1.5z M16.5,2.4H4.3c-0.7,0-1.2,0.5-1.2,1.2c0,0,0,0,0,0v7.8c0,0.7,0.5,1.2,1.2,1.2c0,0,0,0,0,0h12.2
				c0.6,0,1.2-0.5,1.1-1.2c0,0,0,0,0,0V3.6C17.6,3,17.1,2.4,16.5,2.4C16.5,2.4,16.5,2.4,16.5,2.4z"/>
		</g>
	</g>
</g>
<g id="Grupo_15" transform="translate(2.223)">
	<g>
		<defs>
			<rect id="SVGID_00000068664036808472711260000005755845959012588461_" x="2.2" y="1.5" width="16.3" height="11.9"/>
		</defs>
		<clipPath id="SVGID_00000142142214214297229530000001014671113913247380_">
			<use xlink:href="#SVGID_00000068664036808472711260000005755845959012588461_"  style="overflow:visible;"/>
		</clipPath>
		<g id="Grupo_14" style="clip-path:url(#SVGID_00000142142214214297229530000001014671113913247380_);">
			<path id="Caminho_35" class="st1" d="M2.6,2.4C2.4,2.4,2.2,2.2,2.2,2c0-0.2,0.2-0.4,0.4-0.4h14.1c1,0,1.8,0.8,1.8,1.8V13
				c0,0.2-0.2,0.4-0.5,0.4c-0.2,0-0.4-0.2-0.4-0.4V3.3c0-0.5-0.4-0.9-0.9-0.9L2.6,2.4L2.6,2.4z"/>
		</g>
	</g>
</g>
<g id="Grupo_17">
	<g>
		<defs>
			<rect id="SVGID_00000119800364909573044390000000862902710655516056_" x="2.2" y="1.5" width="18.5" height="14.2"/>
		</defs>
		<clipPath id="SVGID_00000034791216714101441650000001806350366791837853_">
			<use xlink:href="#SVGID_00000119800364909573044390000000862902710655516056_"  style="overflow:visible;"/>
		</clipPath>
		<g id="Grupo_16" style="clip-path:url(#SVGID_00000034791216714101441650000001806350366791837853_);">
			<path id="Caminho_36" class="st1" d="M12,10.1l-2.8,1.7c-0.2,0.1-0.5,0.1-0.6-0.1c0-0.1-0.1-0.2-0.1-0.2V8c0-0.2,0.2-0.4,0.4-0.4
				c0.1,0,0.2,0,0.3,0.1L12,9.3c0.2,0.1,0.3,0.4,0.2,0.6C12.1,10,12.1,10,12,10.1L12,10.1z M10.9,9.7L9.4,8.8v1.8L10.9,9.7z"/>
		</g>
	</g>
</g>
</svg>
