<svg xmlns="http://www.w3.org/2000/svg" xmlns:xlink="http://www.w3.org/1999/xlink" width="125.948" height="30.814" viewBox="0 0 125.948 30.814">
    <defs>
        <clipPath id="clip-path">
            <rect id="Ret창ngulo_23" data-name="Ret창ngulo 23" width="125.948" height="30.814" fill="none"/>
        </clipPath>
    </defs>
    <g id="Grupo_41" data-name="Grupo 41" transform="translate(0 0)">
        <g id="Grupo_40" data-name="Grupo 40" transform="translate(0 0)" clip-path="url(#clip-path)">
            <path id="Caminho_43" data-name="Caminho 43" d="M121.375,41.8a4.345,4.345,0,0,0,1.74,1.753,5.125,5.125,0,0,0,2.518.614,5.178,5.178,0,0,0,2.542-.614,4.432,4.432,0,0,0,1.754-1.753,5.371,5.371,0,0,0,.638-2.668V27.357h1.2V39.205a6.412,6.412,0,0,1-.8,3.282,5.455,5.455,0,0,1-2.192,2.117,7,7,0,0,1-6.262,0,5.453,5.453,0,0,1-2.192-2.117,6.412,6.412,0,0,1-.8-3.282V27.357h1.228V39.13a5.445,5.445,0,0,0,.626,2.668" transform="translate(-78.678 -18.009)"/>
            <path id="Caminho_44" data-name="Caminho 44" d="M176.836,28.646a4.687,4.687,0,0,1,1.491,3.745,5.745,5.745,0,0,1-.6,2.6,4.631,4.631,0,0,1-1.866,1.942,6.2,6.2,0,0,1-3.168.739h-2.756v7.465h-1.228V27.356h4.108a5.934,5.934,0,0,1,4.02,1.29m-1.54,7.2a3.665,3.665,0,0,0,1.415-1.591,4.6,4.6,0,0,0,.413-1.866,3.708,3.708,0,0,0-1.1-2.793,4.251,4.251,0,0,0-3.081-1.064h-3.006V36.5h2.756a4.7,4.7,0,0,0,2.6-.651" transform="translate(-111.057 -18.008)"/>
            <path id="Caminho_45" data-name="Caminho 45" d="M213.11,57.5a5.683,5.683,0,0,1-1.809.923,6.937,6.937,0,0,1-2.133.349,7.255,7.255,0,0,1-3.256-.686,5.026,5.026,0,0,1-2.145-1.971,5.992,5.992,0,0,1-.761-3.106,5.641,5.641,0,0,1,.823-3.106,5.437,5.437,0,0,1,2.158-1.958,6.149,6.149,0,0,1,2.807-.674,7.412,7.412,0,0,1,2.557.4,6.186,6.186,0,0,1,1.859,1.048l-1.7,2.245a5.106,5.106,0,0,0-.96-.561,3.356,3.356,0,0,0-1.435-.287,2.444,2.444,0,0,0-1.322.374,2.675,2.675,0,0,0-.948,1.023,3.107,3.107,0,0,0-.349,1.5,2.98,2.98,0,0,0,.374,1.472,2.754,2.754,0,0,0,1.035,1.06,3.029,3.029,0,0,0,1.559.386,3.327,3.327,0,0,0,1.06-.162,2.464,2.464,0,0,0,.836-.462Z" transform="translate(-133.636 -31.122)"/>
            <rect id="Ret창ngulo_22" data-name="Ret창ngulo 22" width="3.493" height="19.682" transform="translate(81.145 7.674)"/>
            <path id="Caminho_46" data-name="Caminho 46" d="M252.72,52.457a5.748,5.748,0,0,1,.786-2.993,5.557,5.557,0,0,1,2.208-2.083,6.82,6.82,0,0,1,3.268-.761,6.586,6.586,0,0,1,3.243.761,5.3,5.3,0,0,1,2.108,2.083,6.05,6.05,0,0,1,.736,2.993,6.117,6.117,0,0,1-.736,3.006,5.356,5.356,0,0,1-2.108,2.108,6.608,6.608,0,0,1-3.293.773,7.127,7.127,0,0,1-3.206-.7,5.236,5.236,0,0,1-2.208-2.021,6.01,6.01,0,0,1-.8-3.168m3.517.025a3.332,3.332,0,0,0,.349,1.534,2.8,2.8,0,0,0,.948,1.085,2.373,2.373,0,0,0,1.347.4,2.5,2.5,0,0,0,1.422-.4,2.616,2.616,0,0,0,.923-1.085,3.82,3.82,0,0,0,0-3.081,2.638,2.638,0,0,0-.923-1.073,2.5,2.5,0,0,0-1.422-.4,2.376,2.376,0,0,0-1.347.4,2.829,2.829,0,0,0-.948,1.073,3.314,3.314,0,0,0-.349,1.547" transform="translate(-166.361 -30.689)"/>
            <path id="Caminho_47" data-name="Caminho 47" d="M297.409,59.578a3.527,3.527,0,0,1-2.47-.911,3.2,3.2,0,0,1-1.048-2.357V48.153h3.492v6.86a2.153,2.153,0,0,0,.374,1.16,1.279,1.279,0,0,0,1.1.437,1.89,1.89,0,0,0,1.335-.524,3.446,3.446,0,0,0,.873-1.434,6.327,6.327,0,0,0,.312-2.058v-4.44h3.492v10.9H301.7l-.275-2,.05.225a4.711,4.711,0,0,1-.948,1.2,4.053,4.053,0,0,1-1.36.811,5.1,5.1,0,0,1-1.758.287" transform="translate(-193.464 -31.698)"/>
            <path id="Caminho_48" data-name="Caminho 48" d="M336.337,42.438a5.223,5.223,0,0,1-2.719-.711,4.921,4.921,0,0,1-1.884-2.058,6.952,6.952,0,0,1-.686-3.193,6.2,6.2,0,0,1,.748-3.143,4.966,4.966,0,0,1,2.046-1.971,6.607,6.607,0,0,1,4.951-.349,3.95,3.95,0,0,1,1.609,1V22.457h3.467V42.139h-3.492v-2.12l.274.748a8.791,8.791,0,0,1-1.9,1.185,5.69,5.69,0,0,1-2.42.487m1.147-2.944a3.745,3.745,0,0,0,1.235-.187,2.834,2.834,0,0,0,.948-.549,3.289,3.289,0,0,0,.711-.91V35.179a2.389,2.389,0,0,0-.611-.936,2.86,2.86,0,0,0-1-.6,3.759,3.759,0,0,0-1.285-.212,2.791,2.791,0,0,0-1.435.386,2.948,2.948,0,0,0-1.06,1.06,2.978,2.978,0,0,0-.4,1.547,3.112,3.112,0,0,0,.4,1.572,2.985,2.985,0,0,0,1.06,1.1,2.723,2.723,0,0,0,1.435.4" transform="translate(-217.923 -14.783)"/>
            <path id="Caminho_49" data-name="Caminho 49" d="M37.993,51.859a1.567,1.567,0,0,1-1.565-1.565V37.312L34.243,39.5a1.564,1.564,0,1,1-2.212-2.212l4.853-4.856a1.564,1.564,0,0,1,2.212,0l4.856,4.856a1.565,1.565,0,0,1-1.106,2.671,1.541,1.541,0,0,1-1.115-.47l-2.174-2.174V50.294a1.567,1.567,0,0,1-1.565,1.565" transform="translate(-20.785 -21.045)" fill="#81bb27"/>
            <path id="Caminho_50" data-name="Caminho 50" d="M22.837,24.344a1.565,1.565,0,1,1,0-3.13h3.339l.155-.014a5.605,5.605,0,0,0,.4-11.075l-1.254-.234-.025-1.274A5.588,5.588,0,0,0,14.493,7.161l-.5,1.7-1.624-.694A3.21,3.21,0,0,0,7.9,11.111l.044,1.4-1.323.241A4.267,4.267,0,0,0,7.4,21.212h4.18a1.565,1.565,0,0,1,0,3.13H7.4A7.4,7.4,0,0,1,4.872,9.994a6.337,6.337,0,0,1,7.18-5.15A8.716,8.716,0,0,1,28.469,7.351a8.774,8.774,0,0,1-1.38,16.933l-.06.008-.485.052Z" transform="translate(0 0)" fill="#00ace7"/>
        </g>
    </g>
</svg>
